<svg width="24" height="24" viewBox="0 0 24 24" fill="none" xmlns="http://www.w3.org/2000/svg">
<path d="M19.645 4.36707C19.1718 3.8938 18.4072 3.8938 17.934 4.36707L12 10.289L6.06598 4.35493C5.59272 3.88167 4.82821 3.88167 4.35495 4.35493C3.88168 4.8282 3.88168 5.5927 4.35495 6.06597L10.289 12L4.35495 17.934C3.88168 18.4073 3.88168 19.1718 4.35495 19.645C4.82821 20.1183 5.59272 20.1183 6.06598 19.645L12 13.711L17.934 19.645C18.4072 20.1183 19.1718 20.1183 19.645 19.645C20.1183 19.1718 20.1183 18.4073 19.645 17.934L13.711 12L19.645 6.06597C20.1061 5.60484 20.1061 4.8282 19.645 4.36707Z" fill="#002244"/>
</svg>
