<svg width="40" height="40" viewBox="0 0 40 40" fill="none" xmlns="http://www.w3.org/2000/svg">
<circle cx="20" cy="20" r="20" fill="#FFB3EA"/>
<path d="M18.9743 30.2435L18.9729 30.2422C15.9483 27.5518 13.5199 25.3894 11.8357 23.3695C10.1623 21.3626 9.33325 19.6224 9.33325 17.7943C9.33325 14.8398 11.6906 12.5 14.7499 12.5C16.4843 12.5 18.1591 13.2968 19.2448 14.5474L19.9999 15.4172L20.7551 14.5474C21.8407 13.2968 23.5156 12.5 25.2499 12.5C28.3092 12.5 30.6666 14.8398 30.6666 17.7943C30.6666 19.6224 29.8376 21.3626 28.164 23.3712C26.4797 25.3924 24.0517 27.5574 21.0275 30.2531C21.0271 30.2535 21.0266 30.2539 21.0262 30.2543L20.0024 31.1616L18.9743 30.2435Z" stroke="white" stroke-width="2"/>
</svg>
