<svg width="40" height="40" viewBox="0 0 40 40" fill="none" xmlns="http://www.w3.org/2000/svg">
<circle cx="20" cy="20" r="20" fill="url(#paint0_linear)"/>
<path d="M13 29H27C28.1046 29 29 28.1046 29 27V13C29 11.8954 28.1046 11 27 11H13C11.8954 11 11 11.8954 11 13V27C11 28.1046 11.8954 29 13 29ZM13 29L24 18L29 23M18 16.5C18 17.3284 17.3284 18 16.5 18C15.6716 18 15 17.3284 15 16.5C15 15.6716 15.6716 15 16.5 15C17.3284 15 18 15.6716 18 16.5Z" stroke="white" stroke-width="2" stroke-linecap="round" stroke-linejoin="round"/>
<defs>
<linearGradient id="paint0_linear" x1="1.39698e-07" y1="-0.202637" x2="40" y2="39.7974" gradientUnits="userSpaceOnUse">
<stop offset="0" stop-color="#CDD2FD"/>
<stop offset="1" stop-color="#6979F8"/>
</linearGradient>
</defs>
</svg>
