<svg width="40" height="40" viewBox="0 0 40 40" fill="none" xmlns="http://www.w3.org/2000/svg">
<path d="M40 19.6348C40 30.6805 31.0457 39.6348 20 39.6348C8.9543 39.6348 0 30.6805 0 19.6348C0 8.58907 8.9543 -0.365234 20 -0.365234C31.0457 -0.365234 40 8.58907 40 19.6348Z" fill="url(#paint0_linear)"/>
<path d="M26.9546 25.0688L26.8626 24.5676L27.2139 24.1986C28.5504 22.7949 29.2735 21.0317 29.285 19.2248C29.283 14.8582 24.9174 11 19.1425 11C13.3662 11 9 14.8599 9 19.2277C9 23.5955 13.3662 27.4554 19.1425 27.4554H19.1435C20.4984 27.4568 21.8401 27.2316 23.0989 26.7929L23.5839 26.6239L24.0038 26.9196C25.7052 28.1179 27.771 28.8327 29.9305 28.974C28.3919 28.1681 27.2656 26.7623 26.9546 25.0688Z" stroke="white" stroke-width="2"/>
<defs>
<linearGradient id="paint0_linear" x1="7.63685e-07" y1="-0.000488948" x2="40" y2="39.9995" gradientUnits="userSpaceOnUse">
<stop offset="0" stop-color="#FFAAE7"/>
<stop offset="1" stop-color="#EB3AA7"/>
</linearGradient>
</defs>
</svg>
