<svg width="40" height="41" viewBox="0 0 40 41" fill="none" xmlns="http://www.w3.org/2000/svg">
  <circle cx="20" cy="20.9971" r="20" fill="url(#paint0_linear)"/>
  <path d="M15 19.9971V15.9971C15 14.671 15.5268 13.3992 16.4645 12.4615C17.4021 11.5239 18.6739 10.9971 20 10.9971C21.3261 10.9971 22.5979 11.5239 23.5355 12.4615C24.4732 13.3992 25 14.671 25 15.9971V19.9971M13 19.9971H27C28.1046 19.9971 29 20.8925 29 21.9971V28.9971C29 30.1016 28.1046 30.9971 27 30.9971H13C11.8954 30.9971 11 30.1016 11 28.9971V21.9971C11 20.8925 11.8954 19.9971 13 19.9971Z" stroke="white" stroke-width="2" stroke-linecap="round" stroke-linejoin="round"/>
  <defs>
    <linearGradient id="paint0_linear" x1="-1.92231e-07" y1="1" x2="40" y2="41" gradientUnits="userSpaceOnUse">
      <stop offset="0" stop-color="#87FC70"/>
      <stop offset="1" stop-color="#00CA7F"/>
    </linearGradient>
  </defs>
</svg>

