<svg width="40" height="41" viewBox="0 0 40 41" fill="none" xmlns="http://www.w3.org/2000/svg">
<circle cx="20" cy="20.3682" r="20" fill="url(#paint0_linear)"/>
<path d="M28 29.3672V27.3672C28 26.3063 27.5786 25.2889 26.8284 24.5388C26.0783 23.7886 25.0609 23.3672 24 23.3672H16C14.9391 23.3672 13.9217 23.7886 13.1716 24.5388C12.4214 25.2889 12 26.3063 12 27.3672V29.3672M24 15.3672C24 17.5763 22.2091 19.3672 20 19.3672C17.7909 19.3672 16 17.5763 16 15.3672C16 13.158 17.7909 11.3672 20 11.3672C22.2091 11.3672 24 13.158 24 15.3672Z" stroke="white" stroke-width="2" stroke-linecap="round" stroke-linejoin="round"/>
<defs>
<linearGradient id="paint0_linear" x1="2" y1="0.000365952" x2="40" y2="40.0004" gradientUnits="userSpaceOnUse">
<stop offset="0" stop-color="#2BBEF2"/>
<stop offset="1" stop-color="#003CFF"/>
</linearGradient>
</defs>
</svg>
