<svg width="40" height="41" viewBox="0 0 40 41" fill="none" xmlns="http://www.w3.org/2000/svg">
<circle cx="20" cy="20.6348" r="20" fill="url(#paint0_linear)"/>
<path d="M20 11.6348C18.1435 11.6348 16.363 12.3723 15.0503 13.685C13.7375 14.9978 13 16.7783 13 18.6348V23.6348C13 24.4304 12.6839 25.1935 12.1213 25.7561C11.5587 26.3187 10.7956 26.6348 10 26.6348H30C29.2044 26.6348 28.4413 26.3187 27.8787 25.7561C27.3161 25.1935 27 24.4304 27 23.6348V18.6348C27 16.7783 26.2625 14.9978 24.9497 13.685C23.637 12.3723 21.8565 11.6348 20 11.6348ZM20 11.6348V8.63477M21.73 30.6348C21.5542 30.9378 21.3018 31.1894 20.9982 31.3643C20.6946 31.5392 20.3504 31.6312 20 31.6312C19.6496 31.6312 19.3054 31.5392 19.0018 31.3643C18.6982 31.1894 18.4458 30.9378 18.27 30.6348" stroke="white" stroke-width="2" stroke-linecap="round" stroke-linejoin="round"/>
<defs>
<linearGradient id="paint0_linear" x1="7.63685e-07" y1="0.999511" x2="40" y2="40.9995" gradientUnits="userSpaceOnUse">
<stop offset="0" stop-color="#FFAAE7"/>
<stop offset="1" stop-color="#EB3AA7"/>
</linearGradient>
</defs>
</svg>
