<svg width="40" height="41" viewBox="0 0 40 41" fill="none" xmlns="http://www.w3.org/2000/svg">
<circle cx="20" cy="20.2031" r="20" fill="url(#paint0_linear)"/>
<path d="M28.4578 13.5913C27.9691 13.0868 27.3889 12.6866 26.7503 12.4136C26.1117 12.1405 25.4272 12 24.7359 12C24.0446 12 23.3601 12.1405 22.7215 12.4136C22.0829 12.6866 21.5026 13.0868 21.0139 13.5913L19.9997 14.6379L18.9855 13.5913C17.9984 12.5728 16.6596 12.0005 15.2636 12.0005C13.8676 12.0005 12.5288 12.5728 11.5417 13.5913C10.5546 14.6099 10 15.9914 10 17.4319C10 18.8723 10.5546 20.2538 11.5417 21.2724L12.5559 22.3189L19.9997 30L27.4436 22.3189L28.4578 21.2724C28.9467 20.7681 29.3346 20.1694 29.5992 19.5105C29.8638 18.8515 30 18.1452 30 17.4319C30 16.7186 29.8638 16.0123 29.5992 15.3533C29.3346 14.6943 28.9467 14.0956 28.4578 13.5913V13.5913Z" stroke="white" stroke-width="2" stroke-linecap="round" stroke-linejoin="round"/>
<defs>
<linearGradient id="paint0_linear" x1="1.39698e-07" y1="0.000488421" x2="40" y2="40.0005" gradientUnits="userSpaceOnUse">
<stop offset="0" stop-color="#CDD2FD"/>
<stop offset="1" stop-color="#6979F8"/>
</linearGradient>
</defs>
</svg>
