<svg width="40" height="41" viewBox="0 0 40 41" fill="none" xmlns="http://www.w3.org/2000/svg">
<circle cx="20" cy="20.7334" r="20" fill="url(#paint0_linear)"/>
<path d="M22.12 22.8534C21.8454 23.1481 21.5141 23.3846 21.1462 23.5485C20.7782 23.7125 20.3809 23.8007 19.9781 23.8078C19.5753 23.8149 19.1752 23.7408 18.8016 23.5899C18.4281 23.439 18.0887 23.2144 17.8038 22.9296C17.519 22.6447 17.2944 22.3053 17.1435 21.9318C16.9926 21.5582 16.9185 21.1581 16.9256 20.7553C16.9327 20.3525 17.0209 19.9552 17.1849 19.5872C17.3488 19.2192 17.5853 18.888 17.88 18.6134M9 9.7334L31 31.7334M25.94 26.6734C24.2306 27.9764 22.1491 28.6983 20 28.7334C13 28.7334 9 20.7334 9 20.7334C10.2439 18.4153 11.9691 16.39 14.06 14.7934L25.94 26.6734ZM17.9 12.9734C18.5883 12.8123 19.2931 12.7317 20 12.7334C27 12.7334 31 20.7334 31 20.7334C30.393 21.869 29.6691 22.9381 28.84 23.9234L17.9 12.9734Z" stroke="white" stroke-width="2" stroke-linecap="round" stroke-linejoin="round"/>
<defs>
<linearGradient id="paint0_linear" x1="3.35276e-07" y1="1.00024" x2="40" y2="41.0002" gradientUnits="userSpaceOnUse">
<stop offset="0" stop-color="#1BADF8"/>
<stop offset="1" stop-color="#1BD4FD"/>
</linearGradient>
</defs>
</svg>
