<svg width="201" height="149" viewBox="0 0 201 149" fill="none" xmlns="http://www.w3.org/2000/svg">
<rect width="200" height="148" fill="white"/>
<path d="M0.0855064 20.7046C10.1945 35.0996 12.8648 117.028 13.4599 143.289C13.4752 143.881 13.4904 144.442 13.4981 144.972H39.0872C39.4 144.411 39.6899 143.858 39.9646 143.289C55.1319 113.131 46.7166 76.9705 46.2741 75.1413C47.4261 80.8901 42.2152 97.5524 36.3253 113.692C32.7319 64.0664 2.00814 23.2101 0.0855064 20.7046Z" fill="#D5E6F4"/>
<path d="M177.732 144.124C182.212 149.33 -4.41313 149.33 0.0798512 144.123C-4.39956 138.919 182.225 138.919 177.732 144.124Z" fill="#D5E6F4"/>
<path d="M163.092 143.142H48.0033C47.4383 143.141 46.8966 142.915 46.497 142.512C46.0975 142.11 45.8727 141.564 45.8721 140.995V41.8554C45.8727 41.2862 46.0975 40.7405 46.497 40.3381C46.8966 39.9356 47.4383 39.7092 48.0033 39.7085H163.092C163.657 39.7092 164.198 39.9356 164.598 40.3381C164.997 40.7405 165.222 41.2862 165.223 41.8554V140.995C165.222 141.564 164.997 142.11 164.598 142.512C164.198 142.915 163.657 143.141 163.092 143.142ZM48.0033 40.5673C47.6643 40.5676 47.3393 40.7035 47.0995 40.945C46.8598 41.1865 46.7249 41.5139 46.7246 41.8554V140.995C46.7249 141.337 46.8598 141.664 47.0995 141.905C47.3393 142.147 47.6643 142.283 48.0033 142.283H163.092C163.431 142.283 163.756 142.147 163.995 141.905C164.235 141.664 164.37 141.337 164.37 140.995V41.8554C164.37 41.5139 164.235 41.1865 163.995 40.945C163.756 40.7035 163.431 40.5676 163.092 40.5673H48.0033Z" fill="#EB3AA7"/>
<path d="M65.886 134.258C70.6807 134.258 74.5676 130.343 74.5676 125.513C74.5676 120.683 70.6807 116.767 65.886 116.767C61.0912 116.767 57.2043 120.683 57.2043 125.513C57.2043 130.343 61.0912 134.258 65.886 134.258Z" fill="#D5E6F4"/>
<path d="M85.9363 119.682C85.5529 119.683 85.1854 119.837 84.9145 120.11C84.6436 120.383 84.4915 120.754 84.4915 121.14C84.4915 121.526 84.6436 121.897 84.9145 122.17C85.1854 122.443 85.5529 122.597 85.9363 122.598H154.149C154.533 122.598 154.901 122.444 155.172 122.171C155.444 121.897 155.596 121.527 155.596 121.14C155.596 120.753 155.444 120.382 155.172 120.109C154.901 119.836 154.533 119.682 154.149 119.682H85.9363Z" fill="#D5E6F4"/>
<path d="M85.9362 128.427C85.5524 128.427 85.1844 128.581 84.9131 128.854C84.6417 129.128 84.4893 129.498 84.4893 129.885C84.4893 130.272 84.6417 130.642 84.9131 130.916C85.1844 131.189 85.5524 131.343 85.9362 131.343H115.288C115.479 131.343 115.667 131.306 115.843 131.232C116.019 131.159 116.178 131.052 116.313 130.917C116.447 130.781 116.554 130.62 116.627 130.443C116.7 130.266 116.737 130.077 116.737 129.885C116.737 129.693 116.7 129.504 116.627 129.327C116.554 129.15 116.447 128.989 116.313 128.853C116.178 128.718 116.019 128.611 115.843 128.538C115.667 128.464 115.479 128.427 115.288 128.427H85.9362Z" fill="#D5E6F4"/>
<path d="M190.435 108.563H75.3471C74.782 108.563 74.2403 108.336 73.8408 107.934C73.4412 107.531 73.2165 106.985 73.2158 106.416V55.5381C73.2165 54.9689 73.4412 54.4232 73.8408 54.0207C74.2403 53.6182 74.782 53.3918 75.3471 53.3911H190.435C191 53.3918 191.542 53.6182 191.942 54.0207C192.341 54.4232 192.566 54.9689 192.567 55.5381V106.416C192.566 106.985 192.341 107.531 191.942 107.934C191.542 108.336 191 108.563 190.435 108.563Z" fill="#0084F4"/>
<path d="M98.7847 71.125C98.4013 71.1256 98.0338 71.2794 97.7629 71.5527C97.492 71.8261 97.3398 72.1965 97.3398 72.5828C97.3398 72.969 97.492 73.3395 97.7629 73.6129C98.0338 73.8862 98.4013 74.04 98.7847 74.0406H166.997C167.381 74.04 167.748 73.8862 168.019 73.6129C168.29 73.3395 168.442 72.969 168.442 72.5828C168.442 72.1965 168.29 71.8261 168.019 71.5527C167.748 71.2794 167.381 71.1256 166.997 71.125H98.7847Z" fill="white"/>
<path d="M98.7847 79.5708C98.4013 79.5714 98.0338 79.7252 97.7629 79.9985C97.492 80.2719 97.3398 80.6423 97.3398 81.0286C97.3398 81.4148 97.492 81.7853 97.7629 82.0586C98.0338 82.332 98.4013 82.4858 98.7847 82.4864H166.997C167.381 82.4858 167.748 82.332 168.019 82.0586C168.29 81.7853 168.442 81.4148 168.442 81.0286C168.442 80.6423 168.29 80.2719 168.019 79.9985C167.748 79.7252 167.381 79.5714 166.997 79.5708H98.7847Z" fill="white"/>
<path d="M98.7847 87.9141C98.4013 87.9146 98.0338 88.0685 97.7629 88.3418C97.492 88.6151 97.3398 88.9856 97.3398 89.3718C97.3398 89.7581 97.492 90.1286 97.7629 90.4019C98.0338 90.6752 98.4013 90.8291 98.7847 90.8296H128.137C128.327 90.8299 128.515 90.7924 128.691 90.7193C128.867 90.6461 129.027 90.5388 129.161 90.4034C129.296 90.268 129.403 90.1072 129.476 89.9302C129.548 89.7532 129.586 89.5635 129.586 89.3718C129.586 89.1802 129.548 88.9905 129.476 88.8135C129.403 88.6365 129.296 88.4757 129.161 88.3403C129.027 88.2049 128.867 88.0976 128.691 88.0244C128.515 87.9513 128.327 87.9138 128.137 87.9141H98.7847Z" fill="white"/>
<path d="M164.682 114.046C169.476 114.046 173.363 110.131 173.363 105.301C173.363 100.471 169.476 96.5552 164.682 96.5552C159.887 96.5552 156 100.471 156 105.301C156 110.131 159.887 114.046 164.682 114.046Z" fill="#EB3AA7"/>
<path d="M163.65 109.478L160.894 105.909L162.497 104.654L163.802 106.344L168.209 101.657L169.683 103.063L163.65 109.478Z" fill="white"/>
<path d="M176.32 15.4134L162.213 18.6655L156.252 7.34121L168.315 2.59717L176.32 15.4134Z" fill="#002244"/>
<path d="M188.043 95.843L193.33 91.0033L181.928 65.0947L171.965 52.7406L188.243 59.8381L189.936 77.9098L198.031 80.7151L196.982 58.1512C196.916 56.7441 196.451 55.3855 195.641 54.2372C194.831 53.089 193.71 52.1993 192.413 51.6743L179.058 46.2704L176.667 36.1595L162.725 35.9585C158.392 43.5524 156.456 50.2358 159.583 54.9961L174.09 69.2484L188.043 95.843Z" fill="#002244"/>
<path d="M190.507 92.5265C190.507 92.5265 191.258 90.2641 192.437 90.7849C193.615 91.3057 196.914 93.9436 196.914 93.9436C196.914 93.9436 202.426 94.729 198.974 96.741C195.522 98.753 194.171 98.6279 194.061 98.3433C193.951 98.0587 193.055 97.4269 193.055 97.4269L191.753 98.2665L189.555 98.4742C189.555 98.4742 186.678 93.5638 187.604 93.4336C188.53 93.3034 190.555 93.4912 190.507 92.5265Z" fill="#002244"/>
<path d="M193.984 78.6533C193.984 78.6533 196.276 78.0531 196.486 79.3317C196.696 80.6103 196.302 84.8352 196.302 84.8352C196.302 84.8352 198.656 89.9165 195.098 88.1002C191.541 86.2839 190.908 85.0757 191.085 84.8274C191.261 84.5791 191.298 83.4784 191.298 83.4784L189.889 82.8371L188.517 81.0951C188.517 81.0951 191.032 75.9865 191.645 76.6972C192.259 77.4079 193.208 79.2202 193.984 78.6533Z" fill="#002244"/>
<path d="M164.404 14.355C167.226 14.355 169.514 12.0504 169.514 9.20755C169.514 6.36467 167.226 4.06006 164.404 4.06006C161.582 4.06006 159.294 6.36467 159.294 9.20755C159.294 12.0504 161.582 14.355 164.404 14.355Z" fill="#FFB9B9"/>
<path d="M163.81 26.1694L176.215 24.3656C174.363 20.9894 172.454 17.9124 169.888 18.2565C167.605 16.6472 167.474 14.0601 168.051 11.1509L161.842 12.8228C162.389 14.6161 162.177 16.1909 160.722 17.4067C162.755 20.2896 164.071 23.1997 163.81 26.1694Z" fill="#FFB9B9"/>
<path d="M162.873 37.1276C167.281 42.9085 171.801 45.1926 176.66 36.9289L177.061 33.2416C180.18 29.2798 179.266 25.8565 175.464 22.819L173.629 18.4749L170.865 18.026C171.229 18.4496 171.461 18.9723 171.53 19.5282C171.599 20.0841 171.503 20.6482 171.254 21.1492C171.005 21.6502 170.615 22.0657 170.132 22.3432C169.649 22.6207 169.095 22.7477 168.54 22.7082L167.541 22.6371C167.17 22.6108 166.809 22.5109 166.477 22.3432C166.145 22.1754 165.85 21.9432 165.607 21.6599L161.361 16.6953L159.572 17.177C159.37 17.2316 159.189 17.3486 159.055 17.5116C158.922 17.6747 158.842 17.8757 158.827 18.0865L158.247 26.36C160.801 29.2096 162.27 32.8521 162.873 37.1276Z" fill="#D5E6F4"/>
<path d="M160.9 33.6057L151.138 31.6089L157.621 25.5316L155.154 21.0361L144.674 32.2646C144.494 32.4709 144.374 32.7229 144.326 32.9933C144.278 33.2637 144.305 33.5421 144.404 33.7982C144.502 34.0543 144.669 34.2782 144.885 34.4457C145.101 34.6131 145.358 34.7176 145.629 34.7479L159.822 36.3312L160.404 38.9186C160.482 39.2627 160.64 39.5831 160.867 39.8525C161.093 40.1219 161.38 40.3324 161.704 40.4664C162.029 40.6003 162.38 40.6537 162.729 40.6219C163.078 40.5902 163.414 40.4744 163.709 40.2841C163.982 40.1081 164.213 39.8729 164.384 39.5957C164.556 39.3186 164.664 39.0063 164.701 38.6818C164.738 38.3573 164.702 38.0285 164.597 37.7195C164.492 37.4105 164.32 37.129 164.093 36.8955L160.9 33.6057Z" fill="#FFB9B9"/>
<path d="M176.077 49.5896L174.781 52.9882C174.655 53.3202 174.6 53.6755 174.619 54.0306C174.639 54.3857 174.734 54.7326 174.896 55.0482C175.059 55.3638 175.287 55.6411 175.564 55.8616C175.841 56.0821 176.161 56.2409 176.503 56.3275C176.905 56.4289 177.325 56.4283 177.726 56.3256C178.127 56.2229 178.496 56.0213 178.801 55.7391C179.105 55.4569 179.335 55.1028 179.47 54.7088C179.605 54.3148 179.64 53.8932 179.573 53.4819L179.025 50.1197L180.827 36.6732L179.216 27.7905L175.543 28.9269L176.763 37.1954L176.077 49.5896Z" fill="#FFB9B9"/>
<path d="M174.691 29.8754L180.245 27.6933L177.15 20.8604C176.819 20.1303 176.297 19.5047 175.64 19.0506C174.984 18.5964 174.217 18.3308 173.422 18.2823L171.997 18.1953L174.691 29.8754Z" fill="#D5E6F4"/>
<path d="M156.396 27.0874L162.317 25.0678L160.229 17.9122C160.162 17.6806 160.014 17.4808 159.814 17.3486C159.613 17.2165 159.372 17.1607 159.135 17.1913C158.934 17.2171 158.745 17.3034 158.593 17.439L152.544 22.8453C153.701 24.7645 154.933 24.8126 156.396 27.0874Z" fill="#D5E6F4"/>
<path d="M167.799 0.850565C167.799 0.850565 170.924 1.44272 171.646 5.36894C171.759 6.03106 171.78 6.70585 171.708 7.37372C171.635 8.12947 171.74 9.72572 173.369 11.6053C174.432 12.8243 175.422 14.1057 176.335 15.4426L173.07 16.3183L171.611 10.8682C170.903 8.22594 169.814 5.70295 168.377 3.38044L168.347 3.33195C168.347 3.33195 167.262 6.25118 164.355 6.65138L165.252 5.46264C165.252 5.46264 161.853 7.4415 159.928 8.04601C159.708 8.11504 159.511 8.24315 159.359 8.41654C159.206 8.58993 159.103 8.80202 159.061 9.02998C159.019 9.25794 159.04 9.49312 159.12 9.71019C159.201 9.92726 159.339 10.118 159.52 10.2618C159.534 10.2727 159.547 10.2835 159.562 10.2943C160.978 11.3778 163.867 13.9631 162.725 16.464C161.584 18.9649 162.915 19.4208 162.915 19.4208L160.461 18.4803L159.337 17.9957L159.451 18.8324L153.967 18.9481C153.967 18.9481 152.485 18.9391 155.117 14.9545C155.117 14.9545 155.753 13.4604 155.231 12.319C154.813 11.4546 154.604 10.5023 154.623 9.54083C154.789 5.52363 156.469 -2.64898 167.799 0.850565Z" fill="#002244"/>
</svg>
